<svg width="116" height="68" viewBox="0 0 116 68" fill="none" xmlns="http://www.w3.org/2000/svg">
<g clip-path="url(#clip0_26_49)">
<path d="M41.3171 34.9004H35.753C34.0937 34.9004 33.3997 35.7304 33.3997 37.2447V65.2728C33.3997 66.7871 34.0937 67.6171 35.753 67.6171H41.3171C46.6652 67.6171 48.9137 65.0282 48.9137 61.1721V55.8486C48.9137 53.8476 48.1642 51.9924 46.4524 50.819C48.1642 49.6951 48.9137 47.8399 48.9137 45.8389V41.3479C48.9137 37.4893 46.6683 34.9029 41.3171 34.9029V34.9004Z" fill="#371A11"/>
<path d="M57.9167 42.8103H57.0068C52.2447 42.8103 49.7865 45.6907 49.7865 48.8156V50.866C49.7865 52.6248 51.0172 53.4549 52.513 53.4549C54.1724 53.4549 55.2396 52.6248 55.2396 51.0636V49.4999C55.2396 48.4253 56.097 47.6447 57.3245 47.6447C58.5521 47.6447 59.4095 48.6205 59.4095 49.4999V49.5493C59.4095 54.238 49.7804 54.1391 49.7804 60.7299V63.6103C49.7804 65.8558 51.6001 67.6146 54.6474 67.6146C57.4294 67.6146 59.0857 64.9788 59.4095 63.1706V64.9764C59.4095 66.6364 60.5322 67.6122 62.5647 67.6122C64.2241 67.6122 65.1309 66.8316 65.1309 65.757V48.8132C65.1309 45.6882 62.136 42.8079 57.9105 42.8079L57.9167 42.8103ZM59.4157 59.7047C59.4157 61.7551 58.7217 62.5851 57.2752 62.5851C56.0446 62.5851 55.511 61.9008 55.511 61.0708V60.2902C55.511 58.6301 57.1148 57.4592 59.4157 55.8955V59.7047Z" fill="#371A11"/>
<path d="M75.9074 54.7715L81.4159 46.7628C82.2733 45.5425 82.113 44.3222 80.6664 43.4921C79.3834 42.6127 77.5636 42.6621 76.7617 43.9813L71.8423 52.0863V36.852C71.8423 35.3377 70.6641 34.5077 69.0078 34.5077C67.3516 34.5077 66.1209 35.3377 66.1209 36.852V65.2703C66.1209 66.7846 67.3516 67.6146 69.0078 67.6146C70.6641 67.6146 71.8423 66.7846 71.8423 65.2703V57.7507L77.3508 66.4907C78.1527 67.7604 79.9725 67.8567 81.2555 66.9798C82.699 66.1498 82.699 64.8306 81.8446 63.5609L75.9074 54.7715Z" fill="#371A11"/>
<path d="M110.075 42.8573C107.561 42.8573 105.902 45.0064 105.421 46.7628V44.7125C105.421 43.6379 104.511 42.8573 102.855 42.8573C100.822 42.8573 99.6996 43.833 99.6996 45.4931V65.2678C99.6996 66.7821 100.93 67.6122 102.586 67.6122C104.243 67.6122 105.421 66.7821 105.421 65.2678V50.7647C105.421 48.7144 106.01 47.8843 107.453 47.8843C108.684 47.8843 109.218 48.5686 109.218 49.3986V51.449C109.218 53.0127 110.396 53.8427 112.052 53.8427C113.551 53.8427 114.939 53.0127 114.939 51.2538V47.8349C114.939 44.6112 113.119 42.8548 110.072 42.8548L110.075 42.8573Z" fill="#371A11"/>
<path d="M43.8215 58.892C44.1269 60.1025 44.3674 61.0634 44.1084 61.9379C43.6025 63.672 41.496 64.386 40.6571 64.4107H40.6139C39.6917 64.4107 37.6684 63.6226 37.1718 61.7996C36.8418 60.599 37.2705 59.0353 37.764 57.227L37.8473 56.9182C38.1649 55.7523 38.3963 54.6332 38.5998 53.65C39.0316 51.575 39.3431 50.0903 40.0926 49.6407H39.337C38.936 49.6407 38.606 49.3418 38.606 48.9762V40.928C38.606 40.5624 38.936 40.2659 39.337 40.2659H39.8027C39.3894 40.0164 39.1087 39.5891 39.1087 39.0999C39.1087 38.3317 39.7934 37.7092 40.6385 37.7092C41.4836 37.7092 42.1683 38.3317 42.1683 39.0999C42.1683 39.5891 41.8908 40.014 41.4744 40.2659H41.9401C42.3411 40.2659 42.6711 40.5624 42.6711 40.928V48.9762C42.6711 49.3418 42.3411 49.6407 41.9401 49.6407H41.1536C42.2578 50.2632 42.6988 52.8867 43.2879 56.3451L43.3897 56.9306C43.5131 57.6494 43.6766 58.3065 43.8246 58.892H43.8215ZM43.803 61.8638C44.0405 61.056 43.803 60.1296 43.5069 58.9538C43.362 58.3683 43.1954 57.7038 43.072 56.9775L42.9703 56.3896C42.6063 54.2454 42.2701 52.279 41.7859 51.0611C42.1406 52.2839 42.3812 54.149 42.6618 56.3525L42.7389 56.9405C42.8315 57.6593 42.9548 58.3164 43.0628 58.9019C43.291 60.1099 43.473 61.0659 43.2818 61.9305C43.1306 62.6222 42.779 63.1533 42.3781 63.5411C42.998 63.1755 43.5779 62.6271 43.803 61.8638ZM42.9733 61.8712C43.1553 61.056 42.9764 60.1247 42.7544 58.9464C42.6433 58.3609 42.523 57.6964 42.4243 56.9701L42.3534 56.3847C42.0203 53.7661 41.6995 51.2711 41.1629 50.2608C41.4004 51.2069 41.5422 53.1016 41.7551 56.3575L41.789 56.9454C41.8352 57.6643 41.9 58.3263 41.9524 58.9093C42.0666 60.1099 42.156 61.0585 42.0635 61.9132C41.9617 62.8173 41.6749 63.4868 41.3572 63.9043C41.9864 63.593 42.7389 62.9433 42.9764 61.8712H42.9733ZM41.7427 61.8885C41.8352 61.0609 41.7458 60.1247 41.6317 58.9365C41.5762 58.351 41.5176 57.6914 41.4682 56.9652L41.4343 56.3797C41.2647 53.7538 41.0796 50.824 40.7712 50.0014V64.0698C41.0426 63.8919 41.5916 63.2595 41.7427 61.891V61.8885ZM41.3202 39.1024C41.3202 38.759 41.0117 38.4799 40.6355 38.4799C40.2592 38.4799 39.9507 38.7615 39.9507 39.1024C39.9507 39.4433 40.2592 39.7249 40.6355 39.7249C41.0117 39.7249 41.3202 39.4433 41.3202 39.1024ZM40.4535 64.0179V50.2879C40.3178 51.0019 40.2098 52.3605 40.108 53.6896C40.0309 54.6727 39.9446 55.7967 39.8243 56.9652L39.7904 57.274C39.6084 59.0575 39.4511 60.599 39.5714 61.7526C39.7102 63.1014 40.1728 63.7783 40.4535 64.0179ZM39.7904 53.6673C39.9292 51.8936 40.0217 50.7919 40.1759 50.1644C39.8335 50.8018 39.6176 52.1703 39.3802 53.697C39.2229 54.6851 39.0501 55.8066 38.8096 56.98L38.751 57.2888C38.3839 59.0649 38.0693 60.599 38.3068 61.7378C38.5566 62.9532 39.3493 63.6449 39.9847 63.9438C39.6608 63.5139 39.3586 62.7877 39.2537 61.7798C39.1303 60.599 39.2907 59.0452 39.4789 57.2468L39.5097 56.938C39.6269 55.772 39.7163 54.653 39.7934 53.6649L39.7904 53.6673ZM39.0686 53.655C39.2167 52.7088 39.3431 51.9011 39.4881 51.2563C39.2845 51.9134 39.1118 52.7508 38.9144 53.7044C38.7078 54.6925 38.4765 55.814 38.1526 56.9874L38.0724 57.2962C37.5851 59.0699 37.1687 60.599 37.4802 61.7304C37.7116 62.5752 38.3037 63.1681 38.9298 63.5559C38.5104 63.1335 38.1526 62.5555 37.9953 61.7921C37.7517 60.6015 38.0662 59.0402 38.4394 57.2369L38.5042 56.9281C38.7417 55.7621 38.9144 54.6431 39.0717 53.655H39.0686Z" fill="#F8AFB3"/>
<path d="M60.5569 55.814H54.3729V64.8948H60.5569V55.814Z" fill="#371A11"/>
<path d="M57.4417 63.551C56.1278 63.551 54.7923 63.2397 54.7954 61.3944C54.7954 60.9868 55.0637 59.7788 55.0637 59.7788C55.2889 58.5783 56.1864 57.1603 57.5003 57.1603C58.8142 57.1603 59.684 58.7413 59.8536 59.9221C59.8536 59.9221 60.1343 61.1597 60.1343 61.6266C60.1343 63.2792 58.7587 63.551 57.4448 63.551H57.4417Z" fill="#FEE8C0"/>
<path d="M91.1992 43.1932H89.9686C85.7431 43.1932 82.6404 45.7327 82.6404 50.5671V61.1128C82.6404 65.9472 85.7431 67.9975 89.9686 67.9975H91.1992C95.4247 67.9975 98.2592 65.9472 98.2592 61.1128V59.5022C98.2592 57.9879 97.081 57.1579 95.4247 57.1579C93.7685 57.1579 92.5378 57.9879 92.5378 59.5022V61.3574C92.5378 62.5777 91.6804 63.2126 90.4528 63.2126C89.2253 63.2126 88.3679 62.5777 88.3679 61.3574V55.2532H97.1951C97.7842 55.2532 98.2653 54.8135 98.2653 54.2775V50.6165C98.2653 45.7821 95.4309 43.1957 91.2054 43.1957L91.1992 43.1932ZM92.5347 52.0814C92.5347 52.2271 92.4268 52.3259 92.2664 52.3259H88.3617V49.8853C88.3617 48.8107 89.2191 48.0301 90.4467 48.0301C91.6742 48.0301 92.5317 48.8107 92.5317 49.8853V52.0814H92.5347Z" fill="#371A11"/>
<path d="M90.4251 53.3709C89.1112 53.3709 87.7757 53.0596 87.7788 51.2143C87.7788 50.8067 88.0471 49.5987 88.0471 49.5987C88.2723 48.3981 89.1698 46.9802 90.4837 46.9802C91.7976 46.9802 92.6674 48.5612 92.837 49.742C92.837 49.742 93.1177 50.9796 93.1177 51.4465C93.1177 53.0991 91.7421 53.3709 90.4282 53.3709H90.4251Z" fill="#FEE8C0"/>
<path d="M109.525 14.258C109.442 14.258 109.362 14.2654 109.281 14.2704C108.597 12.2213 106.543 10.7314 104.115 10.7314C102.743 10.7314 101.496 11.2115 100.54 11.9936C99.573 10.6225 97.9094 9.71429 96.0166 9.71429C93.5166 9.71429 91.4185 11.2957 90.7994 13.4413C90.3768 13.3423 89.9393 13.2854 89.484 13.2854C86.496 13.2854 84.0734 15.5424 84.0734 18.3241C84.0734 21.1058 86.496 23.3628 89.484 23.3628C89.5941 23.3628 89.6983 23.3504 89.8054 23.3455C89.8054 23.3554 89.8084 23.3677 89.8084 23.3776L89.484 23.3653C89.484 23.3653 90.5792 27.4091 89.484 29.9062C89.484 29.9062 98.1832 35.4745 107.975 29.9062C107.975 29.9062 108.915 27.4264 107.975 24.1275H107.921C107.921 24.1275 107.921 24.1176 107.921 24.1127C108.427 24.2587 108.966 24.3379 109.525 24.3379C112.513 24.3379 114.936 22.0809 114.936 19.2992C114.936 16.5175 112.513 14.2605 109.525 14.2605V14.258Z" fill="#FEE8C0" stroke="#371A11" stroke-width="2" stroke-linecap="round" stroke-linejoin="round"/>
<path d="M7.91736 0.39032H2.35331C0.693964 0.39032 0 1.22034 0 2.73464V30.7627C0 32.277 0.693964 33.107 2.35331 33.107H7.91736C13.2655 33.107 15.514 30.5181 15.514 26.662V21.3385C15.514 19.3375 14.7645 17.4823 13.0527 16.3089C14.7645 15.185 15.514 13.3298 15.514 11.3288V6.83781C15.514 2.9792 13.2686 0.39279 7.91736 0.39279V0.39032Z" fill="#371A11"/>
<path d="M24.517 8.3002H23.6071C18.845 8.3002 16.3868 11.1806 16.3868 14.3055V16.3559C16.3868 18.1147 17.6174 18.9447 19.1133 18.9447C20.7727 18.9447 21.8398 18.1147 21.8398 16.5535V14.9898C21.8398 13.9152 22.6973 13.1346 23.9248 13.1346C25.1524 13.1346 26.0098 14.1104 26.0098 14.9898V15.0392C26.0098 19.7278 16.3806 19.629 16.3806 26.2198V29.1001C16.3806 31.3456 18.2004 33.1045 21.2476 33.1045C24.0297 33.1045 25.6859 30.4687 26.0098 28.6604V30.4662C26.0098 32.1263 27.1325 33.102 29.165 33.102C30.8244 33.102 31.7311 32.3214 31.7311 31.2468V14.3055C31.7311 11.1806 28.7363 8.3002 24.5108 8.3002H24.517ZM26.016 25.1946C26.016 27.2449 25.322 28.075 23.8755 28.075C22.6448 28.075 22.1112 27.3907 22.1112 26.5607V25.7801C22.1112 24.12 23.7151 22.9491 26.016 21.3854V25.1946Z" fill="#371A11"/>
<path d="M42.5076 20.2639L48.0162 12.2552C48.8736 11.0348 48.7132 9.81451 47.2667 8.98449C45.9836 8.10506 44.1639 8.15447 43.362 9.47361L38.4425 17.5787V2.34432C38.4425 0.830021 37.2643 0 35.6081 0C33.9518 0 32.7212 0.830021 32.7212 2.34432V30.7627C32.7212 32.277 33.9518 33.107 35.6081 33.107C37.2643 33.107 38.4425 32.277 38.4425 30.7627V23.2431L43.9511 31.983C44.753 33.2527 46.5727 33.3491 47.8558 32.4721C49.2992 31.6421 49.2992 30.323 48.4449 29.0532L42.5076 20.2639Z" fill="#371A11"/>
<path d="M76.6784 8.34961C74.1647 8.34961 72.5054 10.4988 72.0242 12.2552V10.2048C72.0242 9.13022 71.1144 8.34961 69.4581 8.34961C67.4256 8.34961 66.3029 9.32538 66.3029 10.9854V30.7602C66.3029 32.2745 67.5335 33.1045 69.1898 33.1045C70.846 33.1045 72.0242 32.2745 72.0242 30.7602V16.257C72.0242 14.2067 72.6133 13.3767 74.0568 13.3767C75.2874 13.3767 75.821 14.0609 75.821 14.891V16.9413C75.821 18.505 76.9992 19.335 78.6555 19.335C80.1544 19.335 81.5423 18.505 81.5423 16.7462V13.3273C81.5423 10.1035 79.7226 8.34714 76.6753 8.34714L76.6784 8.34961Z" fill="#371A11"/>
<path d="M10.4187 24.3819C10.7271 25.5973 10.9677 26.5533 10.7117 27.4302C10.1997 29.1644 8.09934 29.8783 7.26041 29.903H7.21723C6.29503 29.903 4.27174 29.115 3.77517 27.2919C3.44515 26.0913 3.87386 24.5276 4.36735 22.7169L4.44754 22.413C4.76522 21.2446 4.99654 20.128 5.20319 19.1399C5.63499 17.0673 5.9465 15.5802 6.69599 15.1331H5.94034C5.53938 15.1331 5.20936 14.8342 5.20936 14.4686V6.42278C5.20936 6.05718 5.53938 5.75827 5.94034 5.75827H6.40606C5.9866 5.51124 5.7121 5.08141 5.7121 4.59723C5.7121 3.82897 6.39681 3.20645 7.2419 3.20645C8.087 3.20645 8.77171 3.82897 8.77171 4.59723C8.77171 5.08141 8.49413 5.51124 8.07466 5.75827H8.54347C8.94443 5.75827 9.27137 6.05718 9.27137 6.42278V14.471C9.27137 14.8366 8.94752 15.1355 8.54347 15.1355H7.75698C8.85499 15.7581 9.30221 18.3815 9.89131 21.8399L9.99309 22.4254C10.1165 23.1393 10.2799 23.8014 10.4249 24.3819H10.4187ZM10.4033 27.3537C10.6408 26.5508 10.4064 25.6244 10.1103 24.4461C9.96224 23.8582 9.79878 23.1961 9.67232 22.4649L9.57363 21.8795C9.20968 19.7352 8.87349 17.7664 8.38926 16.5461C8.74395 17.7714 8.98453 19.6364 9.2652 21.8399L9.3423 22.4254C9.43483 23.1443 9.5582 23.8063 9.66615 24.3868C9.89439 25.5973 10.0764 26.5508 9.88514 27.4154C9.72784 28.112 9.3824 28.6407 8.98144 29.031C9.5983 28.6629 10.1781 28.117 10.4002 27.3512L10.4033 27.3537ZM9.57363 27.366C9.75251 26.5508 9.57671 25.6195 9.35464 24.4412C9.24361 23.8557 9.11715 23.1912 9.02462 22.4649L8.95368 21.8795C8.62058 19.2609 8.29982 16.761 7.76315 15.7556C8.00064 16.6968 8.14252 18.594 8.34916 21.8523L8.38618 22.4378C8.43244 23.1616 8.49721 23.8211 8.54964 24.4066C8.66376 25.6072 8.75321 26.5557 8.66068 27.4105C8.5589 28.3146 8.27206 28.9791 7.95438 29.4015C8.58357 29.0903 9.33614 28.4406 9.57363 27.3685V27.366ZM8.34299 27.3759C8.43552 26.5483 8.34608 25.6146 8.23196 24.4263C8.17644 23.8409 8.11476 23.1764 8.06849 22.455L8.03148 21.8671C7.86802 19.2461 7.67987 16.3163 7.37144 15.4913V29.5596C7.64286 29.3818 8.19186 28.7494 8.34299 27.3759ZM7.92045 4.59476C7.92045 4.24892 7.61202 3.97225 7.23574 3.97225C6.85945 3.97225 6.55102 4.24892 6.55102 4.59476C6.55102 4.9406 6.85637 5.21728 7.23574 5.21728C7.6151 5.21728 7.92045 4.93566 7.92045 4.59476ZM7.05685 29.5102V15.7778C6.91805 16.4917 6.81319 17.8504 6.71141 19.1794C6.63122 20.1675 6.54794 21.2866 6.42457 22.46L6.39373 22.7638C6.21175 24.5523 6.05137 26.0889 6.17474 27.2425C6.31045 28.5962 6.77618 29.2731 7.05685 29.5102ZM6.39373 19.1597C6.53252 17.386 6.62505 16.2793 6.77926 15.6568C6.43691 16.2916 6.22101 17.6627 5.98352 19.1893C5.82622 20.1774 5.6535 21.2965 5.41292 22.4699L5.34815 22.7787C4.98421 24.5548 4.67269 26.0938 4.90402 27.2301C5.15384 28.4406 5.95267 29.1372 6.58495 29.4361C6.2611 29.0013 5.95576 28.28 5.85398 27.2672C5.7306 26.0913 5.89099 24.5326 6.07296 22.7342L6.10689 22.4303C6.22409 21.2619 6.31353 20.1428 6.39064 19.1572L6.39373 19.1597ZM5.66892 19.1473C5.81696 18.2012 5.94342 17.3934 6.08838 16.7437C5.88482 17.4008 5.7121 18.2432 5.5147 19.1918C5.30806 20.1848 5.07674 21.3014 4.75289 22.4797L4.66961 22.7836C4.18846 24.5573 3.769 26.0913 4.0836 27.2203C4.31183 28.0626 4.9071 28.658 5.53321 29.0433C5.11375 28.6234 4.75597 28.0429 4.59867 27.282C4.35501 26.0913 4.66961 24.5301 5.04281 22.7268L5.10141 22.418C5.34198 21.2495 5.5147 20.133 5.672 19.1448L5.66892 19.1473Z" fill="#F8AFB3"/>
<path d="M27.1571 21.3064H20.9731V30.3872H27.1571V21.3064Z" fill="#371A11"/>
<path d="M24.042 29.0409C22.7281 29.0409 21.3926 28.7296 21.3957 26.8843C21.3957 26.4767 21.664 25.2687 21.664 25.2687C21.8892 24.0682 22.7867 22.6502 24.1006 22.6502C25.4145 22.6502 26.2843 24.2312 26.4539 25.412C26.4539 25.412 26.7346 26.6496 26.7346 27.1165C26.7346 28.7691 25.359 29.0409 24.0451 29.0409H24.042Z" fill="#FEE8C0"/>
<path d="M57.7995 8.68558H56.5689C52.3434 8.68558 49.2406 11.225 49.2406 16.0594V26.6051C49.2406 31.4395 52.3434 33.4899 56.5689 33.4899H57.7995C62.025 33.4899 64.8595 31.4395 64.8595 26.6051V24.9945C64.8595 23.4802 63.6813 22.6502 62.025 22.6502C60.3687 22.6502 59.1381 23.4802 59.1381 24.9945V26.8497C59.1381 28.07 58.2807 28.7049 57.0531 28.7049C55.8256 28.7049 54.9682 28.07 54.9682 26.8497V20.7456H63.7954C64.3845 20.7456 64.8656 20.3059 64.8656 19.7698V16.1088C64.8656 11.2745 62.0312 8.68805 57.8057 8.68805L57.7995 8.68558ZM59.1381 17.5713C59.1381 17.717 59.0302 17.8158 58.8698 17.8158H54.9651V15.3752C54.9651 14.3006 55.8225 13.52 57.05 13.52C58.2776 13.52 59.135 14.3006 59.135 15.3752V17.5713H59.1381Z" fill="#371A11"/>
<path d="M57.0254 18.8632C55.7115 18.8632 54.376 18.552 54.3791 16.7067C54.3791 16.2991 54.6474 15.0911 54.6474 15.0911C54.8725 13.8905 55.7701 12.4726 57.084 12.4726C58.3979 12.4726 59.2677 14.0536 59.4373 15.2344C59.4373 15.2344 59.718 16.472 59.718 16.9389C59.718 18.5915 58.3424 18.8632 57.0285 18.8632H57.0254Z" fill="#FEE8C0"/>
</g>
<defs>
<clipPath id="clip0_26_49">
<rect width="116" height="68" fill="white"/>
</clipPath>
</defs>
</svg>
