<svg width="227" height="53" viewBox="0 0 227 53" fill="none" xmlns="http://www.w3.org/2000/svg">
<g filter="url(#filter0_d_873_145)">
<path d="M127.718 1L120.187 1C117.944 1 117 2.09018 117 4.08122L117 40.9188C117 42.9066 117.94 44 120.187 44L127.718 44C134.956 44 138 40.5989 138 35.5299L138 28.5351C138 25.9044 136.988 23.4661 134.669 21.9255C136.984 20.4502 138 18.012 138 15.3779L138 9.47336C138 4.40436 134.961 1.00326 127.718 1.00326L127.718 1Z" fill="#F8AFB3"/>
</g>
<g filter="url(#filter1_d_873_145)">
<path d="M149.129 11L147.884 11C141.372 11 138.004 14.8326 138.004 18.989L138.004 21.7181C138.004 24.0573 139.686 25.1608 141.735 25.1608C144.003 25.1608 145.466 24.0573 145.466 21.9791L145.466 19.9009C145.466 18.4703 146.639 17.4328 148.32 17.4328C150.002 17.4328 151.174 18.7313 151.174 19.9009L151.174 19.967C151.174 26.2048 138 26.0727 138 34.8414L138 38.674C138 41.6608 140.49 44 144.658 44C148.461 44 150.733 40.4912 151.17 38.0892L151.17 40.4912C151.17 42.6982 152.706 44 155.487 44C157.755 44 159 42.9593 159 41.5319L159 18.989C159 14.8326 154.901 11 149.12 11L149.129 11ZM151.178 33.4769C151.178 36.2059 150.229 37.3095 148.252 37.3095C146.57 37.3095 145.839 36.4009 145.839 35.2941L145.839 34.2533C145.839 32.0463 148.034 30.4868 151.183 28.4053L151.183 33.4736L151.178 33.4769Z" fill="#F8AFB3"/>
</g>
<g filter="url(#filter2_d_873_145)">
<path d="M172.004 27.3174L178.76 16.9149C179.81 15.328 179.611 13.7442 177.843 12.6669C176.271 11.525 174.04 11.5895 173.055 13.3023L167.02 23.8305L167.02 4.04493C167.02 2.07733 165.578 1 163.543 1C161.507 1 160 2.07733 160 4.04493L160 40.9551C160 42.9227 161.507 44 163.543 44C165.578 44 167.02 42.9227 167.02 40.9551L167.02 31.1881L173.775 42.5388C174.757 44.1871 176.988 44.3161 178.564 43.1743C180.335 42.0969 180.335 40.3841 179.285 38.7359L172.004 27.3206L172.004 27.3174Z" fill="#F8AFB3"/>
</g>
<g filter="url(#filter3_d_873_145)">
<path d="M216.609 11C213.312 11 211.138 13.8634 210.506 16.207L210.506 13.4728C210.506 12.0394 209.312 11 207.139 11C204.472 11 203 12.3009 203 14.5155L203 40.8751C203 42.8944 204.612 44 206.79 44C208.968 44 210.51 42.8944 210.51 40.8751L210.51 21.5432C210.51 18.8089 211.281 17.7033 213.176 17.7033C214.788 17.7033 215.49 18.6136 215.49 19.7225L215.49 22.4568C215.49 24.539 217.032 25.6446 219.21 25.6446C221.175 25.6446 223 24.539 223 22.1953L223 17.6404C223 13.3437 220.617 11.0033 216.618 11.0033L216.609 11Z" fill="#F8AFB3"/>
</g>
<g filter="url(#filter4_d_873_145)">
<path d="M130.502 33.348C130.884 35.0313 131.186 36.3599 130.864 37.575C130.227 39.9777 127.587 40.969 126.526 41L126.471 41C125.312 41 122.77 39.9088 122.145 37.3823C121.733 35.7197 122.267 33.5511 122.888 31.0418L122.994 30.6218C123.391 29.0006 123.686 27.455 123.937 26.0919C124.479 23.2143 124.872 21.1524 125.811 20.5328L124.86 20.5328C124.357 20.5328 123.949 20.1163 123.949 19.6103L123.949 8.45763C123.949 7.95163 124.357 7.54201 124.86 7.54201L125.45 7.54201C124.923 7.19435 124.574 6.60573 124.574 5.92762C124.574 4.86055 125.438 4 126.495 4C127.552 4 128.416 4.86399 128.416 5.92762C128.416 6.60573 128.07 7.19435 127.544 7.54201L128.129 7.54201C128.632 7.54201 129.049 7.95163 129.049 8.45763L129.049 19.6103C129.049 20.1163 128.636 20.5328 128.129 20.5328L127.143 20.5328C128.53 21.3968 129.084 25.0317 129.823 29.8267L129.948 30.6356C130.102 31.6338 130.31 32.5426 130.495 33.348L130.502 33.348ZM130.483 37.4683C130.781 36.3531 130.483 35.0691 130.117 33.441C129.933 32.6321 129.721 31.7096 129.563 30.6976L129.438 29.8886C128.982 26.9146 128.562 24.1918 127.953 22.4983C128.404 24.1987 128.699 26.7838 129.053 29.837L129.147 30.6459C129.265 31.6442 129.418 32.5598 129.556 33.3687C129.842 35.0416 130.07 36.3634 129.831 37.5681C129.638 38.5285 129.198 39.2617 128.695 39.8021C129.477 39.2961 130.204 38.5354 130.483 37.4718L130.483 37.4683ZM129.438 37.4821C129.666 36.3531 129.442 35.0622 129.163 33.4272C129.025 32.6183 128.872 31.6958 128.754 30.6872L128.66 29.8783C128.239 26.2503 127.839 22.784 127.163 21.3899C127.461 22.6945 127.642 25.3278 127.905 29.8405L127.949 30.6494C128.008 31.651 128.086 32.5667 128.157 33.379C128.298 35.0416 128.412 36.3565 128.294 37.5406C128.169 38.7936 127.807 39.7195 127.414 40.3012C128.2 39.871 129.143 38.9691 129.442 37.4821L129.438 37.4821ZM127.89 37.4993C128.008 36.3599 127.894 35.0588 127.756 33.4134C127.681 32.6045 127.607 31.682 127.548 30.6803L127.501 29.8714C127.289 26.233 127.057 22.1713 126.668 21.0319L126.668 40.5319C127.006 40.2875 127.701 39.4063 127.89 37.5062L127.89 37.4993ZM127.359 5.92418C127.359 5.44916 126.97 5.06019 126.499 5.06019C126.027 5.06019 125.638 5.44916 125.638 5.92418C125.638 6.3992 126.027 6.78817 126.499 6.78817C126.97 6.78817 127.359 6.3992 127.359 5.92418ZM126.271 40.4561L126.271 21.4243C126.102 22.4088 125.968 24.2951 125.835 26.1367C125.74 27.5067 125.627 29.0625 125.477 30.6838L125.434 31.1106C125.206 33.5821 125.01 35.7197 125.159 37.3203C125.336 39.1894 125.913 40.1291 126.267 40.4596L126.271 40.4561ZM125.438 26.1091C125.615 23.6514 125.729 22.1162 125.921 21.2557C125.493 22.1403 125.226 24.0369 124.923 26.1539C124.731 27.5239 124.511 29.0728 124.208 30.7044L124.133 31.1244C123.678 33.5924 123.277 35.7197 123.576 37.2962C123.89 38.976 124.892 39.9398 125.682 40.3563C125.273 39.7539 124.896 38.7523 124.762 37.3547C124.609 35.7197 124.809 33.5649 125.045 31.0728L125.08 30.6459C125.23 29.0247 125.34 27.4791 125.438 26.1126L125.438 26.1091ZM124.53 26.0954C124.715 24.7839 124.876 23.6652 125.057 22.7702C124.801 23.6755 124.585 24.8424 124.334 26.1642C124.075 27.5342 123.78 29.0832 123.383 30.7148L123.277 31.1416C122.668 33.5993 122.145 35.7197 122.534 37.2859C122.825 38.4597 123.568 39.2789 124.353 39.8125C123.835 39.2307 123.375 38.4253 123.179 37.3719C122.872 35.7197 123.269 33.558 123.737 31.0555L123.815 30.6287C124.114 29.0074 124.33 27.4619 124.526 26.0954L124.53 26.0954Z" fill="#371A11"/>
</g>
<path d="M151.886 26.2856L144.886 26.2856L144.886 38.2856L151.886 38.2856L151.886 26.2856Z" fill="#F8AFB3"/>
<path d="M148.862 37.2856C147.385 37.2856 145.883 36.8971 145.886 34.5879C145.886 34.0751 146.185 32.5646 146.185 32.5646C146.439 31.0634 147.448 29.2856 148.925 29.2856C150.402 29.2856 151.38 31.2654 151.573 32.7417C151.573 32.7417 151.886 34.2926 151.886 34.8769C151.886 36.9469 150.339 37.2856 148.862 37.2856Z" fill="#FEE8C0"/>
<g filter="url(#filter5_d_873_145)">
<path d="M192.167 12.0374L190.575 12.0374C185.101 12.0374 181.082 15.4102 181.082 21.8357L181.082 35.8518C181.082 42.274 185.101 45 190.575 45L192.167 45C197.641 45 201.316 42.274 201.316 35.8518L201.316 33.7099C201.316 31.6968 199.792 30.5945 197.641 30.5945C195.489 30.5945 193.897 31.6968 193.897 33.7099L193.897 36.1752C193.897 37.7989 192.787 38.6405 191.195 38.6405C189.603 38.6405 188.492 37.7956 188.492 36.1752L188.492 28.0633L199.926 28.0633C200.688 28.0633 201.312 27.4791 201.312 26.7663L201.312 21.8984C201.312 15.4762 197.637 12.0341 192.163 12.0341L192.167 12.0374ZM193.897 23.8456C193.897 24.0403 193.759 24.169 193.549 24.169L188.488 24.169L188.488 20.9249C188.488 19.4959 189.599 18.4596 191.191 18.4596C192.783 18.4596 193.893 19.4992 193.893 20.9249L193.893 23.8456L193.897 23.8456Z" fill="#F8AFB3"/>
<path d="M191.162 25.5617C189.461 25.5617 187.731 25.1492 187.735 22.6971C187.735 22.1526 188.079 20.5487 188.079 20.5487C188.371 18.9547 189.534 17.0669 191.235 17.0669C192.937 17.0669 194.063 19.1692 194.286 20.7368C194.286 20.7368 194.647 22.3836 194.647 23.004C194.647 25.202 192.864 25.5617 191.162 25.5617Z" fill="#FEE8C0"/>
</g>
<g filter="url(#filter6_d_873_145)">
<path d="M14.2036 1L7.03568 1C4.89498 1 4 2.09344 4 4.08122L4 40.9188C4 42.9066 4.89498 44 7.03568 44L14.2076 44C21.1014 44 24 40.5989 24 35.5299L24 28.5351C24 25.9044 23.0365 23.4661 20.8273 21.9255C23.0325 20.4502 24 18.012 24 15.3779L24 9.47336C24 4.40436 21.1054 1.00326 14.2076 1.00326L14.2036 1Z" fill="#371A11"/>
</g>
<g filter="url(#filter7_d_873_145)">
<path d="M35.599 11L34.4132 11C28.2111 11 25.0041 14.8326 25.0041 18.989L25.0041 21.7181C25.0041 24.0573 26.6055 25.1608 28.5575 25.1608C30.7172 25.1608 32.1108 24.0573 32.1108 21.9791L32.1108 19.9009C32.1108 18.4703 33.2274 17.4328 34.8289 17.4328C36.4303 17.4328 37.5469 18.7313 37.5469 19.9009L37.5469 19.967C37.5469 26.2048 25 26.0727 25 34.8414L25 38.674C25 41.6608 27.3716 44 31.3407 44C34.9633 44 37.1271 40.4912 37.5428 38.0892L37.5428 40.4912C37.5428 42.6982 39.0057 44 41.6544 44C43.8142 44 45 42.9593 45 41.5319L45 18.9923C45 14.8359 41.0962 11.0033 35.5909 11.0033L35.599 11ZM37.5509 33.4769C37.5509 36.2059 36.6463 37.3095 34.7636 37.3095C33.1622 37.3095 32.4654 36.4009 32.4654 35.2941L32.4654 34.2533C32.4654 32.0463 34.5558 30.4868 37.555 28.4053L37.555 33.4736L37.5509 33.4769Z" fill="#371A11"/>
</g>
<g filter="url(#filter8_d_873_145)">
<path d="M58.6043 26.9327L65.6975 16.2884C66.8005 14.6645 66.5912 13.0439 64.7354 11.9415C63.0848 10.7731 60.7419 10.8391 59.7073 12.5917L53.371 23.3648L53.371 3.11575C53.371 1.10239 51.8573 2.63787e-08 49.7197 1.67518e-08C47.5821 7.12497e-09 46 1.10239 46 3.11575L46 40.8843C46 42.8976 47.5821 44 49.7197 44C51.8573 44 53.371 42.8976 53.371 40.8843L53.371 30.8901L60.4641 42.5048C61.4947 44.1914 63.8376 44.3235 65.4922 43.1551C67.352 42.0527 67.352 40.3001 66.249 38.6135L58.6043 26.9327Z" fill="#371A11"/>
</g>
<g filter="url(#filter9_d_873_145)">
<path d="M103.61 11C100.312 11 98.1378 13.8634 97.5062 16.207L97.5062 13.4728C97.5062 12.0394 96.3125 11 94.1386 11C91.4725 11 90 12.3009 90 14.5155L90 40.8751C90 42.8944 91.612 44 93.79 44C95.968 44 97.5103 42.8944 97.5103 40.8751L97.5103 21.5432C97.5103 18.8089 98.2814 17.7033 100.176 17.7033C101.788 17.7033 102.49 18.6136 102.49 19.7225L102.49 22.4568C102.49 24.539 104.032 25.6446 106.21 25.6446C108.175 25.6446 110 24.539 110 22.1953L110 17.6404C110 13.3437 107.617 11.0033 103.618 11.0033L103.61 11Z" fill="#371A11"/>
</g>
<g filter="url(#filter10_d_873_145)">
<path d="M17.5025 32.5536C17.8836 34.1908 18.1861 35.4833 17.8639 36.6652C17.2274 39.0022 14.5832 39.9665 13.5263 39.9933C13.5223 39.9933 13.5145 40 13.5145 40L13.4713 40C12.3122 40 9.77009 38.9386 9.14537 36.481C8.73281 34.8571 9.26717 32.7545 9.88796 30.3136L9.99404 29.8984C10.3869 28.3281 10.6856 26.8248 10.937 25.4922C11.4792 22.6998 11.8721 20.6908 12.8112 20.0848L11.8603 20.0848C11.3574 20.0848 10.9409 19.6864 10.9409 19.1942L10.9409 8.33929C10.9409 7.8471 11.3535 7.44196 11.8603 7.44196L12.4458 7.44196C11.9271 7.10379 11.5735 6.53125 11.5735 5.875C11.5735 4.83705 12.434 4 13.4948 4C14.5557 4 15.4161 4.8404 15.4161 5.875C15.4161 6.5279 15.0665 7.10379 14.5439 7.44196L15.1293 7.44196C15.6322 7.44196 16.0487 7.8471 16.0487 8.33929L16.0487 19.1875C16.0487 19.6797 15.6362 20.0781 15.1293 20.0781L14.1431 20.0781C15.5301 20.9219 16.0841 24.4576 16.8227 29.125L16.9485 29.9118C17.1017 30.8761 17.3099 31.7667 17.4946 32.5502L17.5025 32.5536ZM17.4789 36.5614C17.7775 35.4766 17.4789 34.2243 17.1056 32.644C16.9249 31.8504 16.7127 30.9531 16.5595 29.9754L16.4338 29.1886C15.978 26.2924 15.5537 23.6406 14.9486 22C15.3926 23.654 15.6951 26.1618 16.0487 29.1384L16.143 29.9252C16.2609 30.8962 16.4141 31.7868 16.5516 32.5703C16.8385 34.2042 17.0663 35.49 16.8267 36.6551C16.6341 37.5926 16.1941 38.3025 15.6912 38.8315C16.4731 38.3326 17.1999 37.5926 17.4789 36.5647L17.4789 36.5614ZM16.4338 36.5714C16.6617 35.4766 16.4377 34.2243 16.1587 32.6306C16.0212 31.8371 15.868 30.9464 15.7462 29.9654L15.6558 29.1719C15.2354 25.6462 14.8346 22.2779 14.1588 20.9152C14.4575 22.1908 14.6382 24.7455 14.8975 29.1417L14.9447 29.9286C15.0036 30.9029 15.0822 31.7935 15.1529 32.577C15.2943 34.2009 15.4083 35.4799 15.2904 36.6317C15.1647 37.8504 14.8032 38.7478 14.4024 39.3103C15.1922 38.8951 16.1391 38.0145 16.4338 36.5681L16.4338 36.5714ZM14.8896 36.5915C15.0075 35.4766 14.8936 34.2109 14.7521 32.6172C14.6814 31.8304 14.6028 30.933 14.5439 29.9587L14.5007 29.1652C14.2885 25.6295 14.0567 21.6786 13.6677 20.5703L13.6677 39.5379C14.0056 39.3002 14.6971 38.4431 14.8896 36.5949L14.8896 36.5915ZM14.3592 5.87835C14.3592 5.41295 13.9702 5.03795 13.4988 5.03795C13.0273 5.03795 12.6383 5.4096 12.6383 5.87835C12.6383 6.3471 13.0273 6.71875 13.4988 6.71875C13.9702 6.71875 14.3592 6.3404 14.3592 5.87835ZM13.2709 39.4676L13.2709 20.952C13.1019 21.9163 12.9644 23.7444 12.8348 25.5391C12.7326 26.8717 12.6265 28.3783 12.4772 29.9621L12.434 30.3705C12.2061 32.7746 12.0096 34.8538 12.159 36.4107C12.3358 38.2355 12.9133 39.1429 13.2669 39.4676L13.2709 39.4676ZM12.4379 25.5123C12.6147 23.1217 12.7287 21.6283 12.9212 20.7846C12.4929 21.6451 12.2218 23.4967 11.9232 25.5525C11.7268 26.885 11.5107 28.3917 11.2081 29.9754L11.1295 30.3906C10.6738 32.7846 10.2809 34.8538 10.5716 36.394C10.8859 38.0279 11.8878 38.9654 12.6854 39.3705C12.2768 38.7846 11.8996 37.8103 11.766 36.4475C11.6128 34.8571 11.8132 32.7612 12.0411 30.3371L12.0843 29.9286C12.2336 28.3516 12.3436 26.8449 12.4418 25.519L12.4379 25.5123ZM11.5303 25.4989C11.715 24.2232 11.8761 23.1283 12.0568 22.2578C11.8014 23.1451 11.5853 24.2734 11.3339 25.5592C11.0745 26.8917 10.7799 28.4051 10.3791 29.9855L10.2769 30.4007C9.66793 32.7913 9.14144 34.8538 9.53434 36.3839C9.82116 37.519 10.5677 38.3225 11.3535 38.8415C10.827 38.2757 10.3752 37.4922 10.1787 36.4676C9.87224 34.8571 10.2691 32.7578 10.7366 30.3203L10.8152 29.9118C11.1138 28.3348 11.3299 26.8281 11.5264 25.5022L11.5303 25.4989Z" fill="#F8AFB3"/>
</g>
<g filter="url(#filter11_d_873_145)">
<path d="M40 28L31 28L31 41L40 41L40 28Z" fill="#371A11"/>
</g>
<g filter="url(#filter12_d_873_145)">
<path d="M35.4713 39C33.748 39 31.9959 38.5629 32 35.965C32 35.3881 32.3488 33.6888 32.3488 33.6888C32.6442 32 33.8218 30 35.5451 30C37.2685 30 38.4091 32.2273 38.6348 33.8881C38.6348 33.8881 39 35.6329 39 36.2902C39 38.6189 37.1946 39 35.4713 39Z" fill="#FEE8C0"/>
</g>
<g filter="url(#filter13_d_873_145)">
<path d="M78.8807 11.5409L77.2884 11.5409C71.8148 11.5409 67.7957 14.9137 67.7957 21.3393L67.7957 35.3553C67.7957 41.7776 71.8148 44.5036 77.2884 44.5036L78.8807 44.5036C84.3543 44.5036 88.0291 41.7776 88.0291 35.3553L88.0291 33.2135C88.0291 31.2003 86.5057 30.0981 84.3543 30.0981C82.203 30.0981 80.6107 31.2003 80.6107 33.2135L80.6107 35.6788C80.6107 37.3025 79.5006 38.144 77.9083 38.144C76.3161 38.144 75.2059 37.2992 75.2059 35.6788L75.2059 27.5668L86.6394 27.5668C87.4011 27.5668 88.025 26.9827 88.025 26.2698L88.025 21.402C88.025 14.9797 84.3503 11.5376 78.8766 11.5376L78.8807 11.5409ZM80.6148 23.3524C80.6148 23.5471 80.477 23.6758 80.2663 23.6758L75.2059 23.6758L75.2059 20.4317C75.2059 19.0027 76.3161 17.9664 77.9083 17.9664C79.5006 17.9664 80.6107 19.006 80.6107 20.4317L80.6107 23.3524L80.6148 23.3524Z" fill="#371A11"/>
<path d="M77.88 25.0685C76.1783 25.0685 74.4483 24.656 74.4523 22.2039C74.4523 21.6594 74.7967 20.0555 74.7967 20.0555C75.0884 18.4615 76.2512 16.5737 77.9529 16.5737C79.6545 16.5737 80.7809 18.676 81.0037 20.2436C81.0037 20.2436 81.3643 21.8904 81.3643 22.5108C81.3643 24.7088 79.5816 25.0685 77.88 25.0685Z" fill="#FEE8C0"/>
</g>
<defs>
<filter id="filter0_d_873_145" x="113" y="1" width="29" height="51" filterUnits="userSpaceOnUse" color-interpolation-filters="sRGB">
<feFlood flood-opacity="0" result="BackgroundImageFix"/>
<feColorMatrix in="SourceAlpha" type="matrix" values="0 0 0 0 0 0 0 0 0 0 0 0 0 0 0 0 0 0 127 0" result="hardAlpha"/>
<feOffset dy="4"/>
<feGaussianBlur stdDeviation="2"/>
<feComposite in2="hardAlpha" operator="out"/>
<feColorMatrix type="matrix" values="0 0 0 0 0 0 0 0 0 0 0 0 0 0 0 0 0 0 0.25 0"/>
<feBlend mode="normal" in2="BackgroundImageFix" result="effect1_dropShadow_873_145"/>
<feBlend mode="normal" in="SourceGraphic" in2="effect1_dropShadow_873_145" result="shape"/>
</filter>
<filter id="filter1_d_873_145" x="134" y="11" width="29" height="41" filterUnits="userSpaceOnUse" color-interpolation-filters="sRGB">
<feFlood flood-opacity="0" result="BackgroundImageFix"/>
<feColorMatrix in="SourceAlpha" type="matrix" values="0 0 0 0 0 0 0 0 0 0 0 0 0 0 0 0 0 0 127 0" result="hardAlpha"/>
<feOffset dy="4"/>
<feGaussianBlur stdDeviation="2"/>
<feComposite in2="hardAlpha" operator="out"/>
<feColorMatrix type="matrix" values="0 0 0 0 0 0 0 0 0 0 0 0 0 0 0 0 0 0 0.25 0"/>
<feBlend mode="normal" in2="BackgroundImageFix" result="effect1_dropShadow_873_145"/>
<feBlend mode="normal" in="SourceGraphic" in2="effect1_dropShadow_873_145" result="shape"/>
</filter>
<filter id="filter2_d_873_145" x="156" y="1" width="28" height="51" filterUnits="userSpaceOnUse" color-interpolation-filters="sRGB">
<feFlood flood-opacity="0" result="BackgroundImageFix"/>
<feColorMatrix in="SourceAlpha" type="matrix" values="0 0 0 0 0 0 0 0 0 0 0 0 0 0 0 0 0 0 127 0" result="hardAlpha"/>
<feOffset dy="4"/>
<feGaussianBlur stdDeviation="2"/>
<feComposite in2="hardAlpha" operator="out"/>
<feColorMatrix type="matrix" values="0 0 0 0 0 0 0 0 0 0 0 0 0 0 0 0 0 0 0.25 0"/>
<feBlend mode="normal" in2="BackgroundImageFix" result="effect1_dropShadow_873_145"/>
<feBlend mode="normal" in="SourceGraphic" in2="effect1_dropShadow_873_145" result="shape"/>
</filter>
<filter id="filter3_d_873_145" x="199" y="11" width="28" height="41" filterUnits="userSpaceOnUse" color-interpolation-filters="sRGB">
<feFlood flood-opacity="0" result="BackgroundImageFix"/>
<feColorMatrix in="SourceAlpha" type="matrix" values="0 0 0 0 0 0 0 0 0 0 0 0 0 0 0 0 0 0 127 0" result="hardAlpha"/>
<feOffset dy="4"/>
<feGaussianBlur stdDeviation="2"/>
<feComposite in2="hardAlpha" operator="out"/>
<feColorMatrix type="matrix" values="0 0 0 0 0 0 0 0 0 0 0 0 0 0 0 0 0 0 0.25 0"/>
<feBlend mode="normal" in2="BackgroundImageFix" result="effect1_dropShadow_873_145"/>
<feBlend mode="normal" in="SourceGraphic" in2="effect1_dropShadow_873_145" result="shape"/>
</filter>
<filter id="filter4_d_873_145" x="118" y="4" width="17" height="45" filterUnits="userSpaceOnUse" color-interpolation-filters="sRGB">
<feFlood flood-opacity="0" result="BackgroundImageFix"/>
<feColorMatrix in="SourceAlpha" type="matrix" values="0 0 0 0 0 0 0 0 0 0 0 0 0 0 0 0 0 0 127 0" result="hardAlpha"/>
<feOffset dy="4"/>
<feGaussianBlur stdDeviation="2"/>
<feComposite in2="hardAlpha" operator="out"/>
<feColorMatrix type="matrix" values="0 0 0 0 0 0 0 0 0 0 0 0 0 0 0 0 0 0 0.25 0"/>
<feBlend mode="normal" in2="BackgroundImageFix" result="effect1_dropShadow_873_145"/>
<feBlend mode="normal" in="SourceGraphic" in2="effect1_dropShadow_873_145" result="shape"/>
</filter>
<filter id="filter5_d_873_145" x="177.082" y="12.0341" width="28.2335" height="40.966" filterUnits="userSpaceOnUse" color-interpolation-filters="sRGB">
<feFlood flood-opacity="0" result="BackgroundImageFix"/>
<feColorMatrix in="SourceAlpha" type="matrix" values="0 0 0 0 0 0 0 0 0 0 0 0 0 0 0 0 0 0 127 0" result="hardAlpha"/>
<feOffset dy="4"/>
<feGaussianBlur stdDeviation="2"/>
<feComposite in2="hardAlpha" operator="out"/>
<feColorMatrix type="matrix" values="0 0 0 0 0 0 0 0 0 0 0 0 0 0 0 0 0 0 0.25 0"/>
<feBlend mode="normal" in2="BackgroundImageFix" result="effect1_dropShadow_873_145"/>
<feBlend mode="normal" in="SourceGraphic" in2="effect1_dropShadow_873_145" result="shape"/>
</filter>
<filter id="filter6_d_873_145" x="0" y="1" width="28" height="51" filterUnits="userSpaceOnUse" color-interpolation-filters="sRGB">
<feFlood flood-opacity="0" result="BackgroundImageFix"/>
<feColorMatrix in="SourceAlpha" type="matrix" values="0 0 0 0 0 0 0 0 0 0 0 0 0 0 0 0 0 0 127 0" result="hardAlpha"/>
<feOffset dy="4"/>
<feGaussianBlur stdDeviation="2"/>
<feComposite in2="hardAlpha" operator="out"/>
<feColorMatrix type="matrix" values="0 0 0 0 0 0 0 0 0 0 0 0 0 0 0 0 0 0 0.25 0"/>
<feBlend mode="normal" in2="BackgroundImageFix" result="effect1_dropShadow_873_145"/>
<feBlend mode="normal" in="SourceGraphic" in2="effect1_dropShadow_873_145" result="shape"/>
</filter>
<filter id="filter7_d_873_145" x="21" y="11" width="28" height="41" filterUnits="userSpaceOnUse" color-interpolation-filters="sRGB">
<feFlood flood-opacity="0" result="BackgroundImageFix"/>
<feColorMatrix in="SourceAlpha" type="matrix" values="0 0 0 0 0 0 0 0 0 0 0 0 0 0 0 0 0 0 127 0" result="hardAlpha"/>
<feOffset dy="4"/>
<feGaussianBlur stdDeviation="2"/>
<feComposite in2="hardAlpha" operator="out"/>
<feColorMatrix type="matrix" values="0 0 0 0 0 0 0 0 0 0 0 0 0 0 0 0 0 0 0.25 0"/>
<feBlend mode="normal" in2="BackgroundImageFix" result="effect1_dropShadow_873_145"/>
<feBlend mode="normal" in="SourceGraphic" in2="effect1_dropShadow_873_145" result="shape"/>
</filter>
<filter id="filter8_d_873_145" x="42" y="0" width="29" height="52" filterUnits="userSpaceOnUse" color-interpolation-filters="sRGB">
<feFlood flood-opacity="0" result="BackgroundImageFix"/>
<feColorMatrix in="SourceAlpha" type="matrix" values="0 0 0 0 0 0 0 0 0 0 0 0 0 0 0 0 0 0 127 0" result="hardAlpha"/>
<feOffset dy="4"/>
<feGaussianBlur stdDeviation="2"/>
<feComposite in2="hardAlpha" operator="out"/>
<feColorMatrix type="matrix" values="0 0 0 0 0 0 0 0 0 0 0 0 0 0 0 0 0 0 0.25 0"/>
<feBlend mode="normal" in2="BackgroundImageFix" result="effect1_dropShadow_873_145"/>
<feBlend mode="normal" in="SourceGraphic" in2="effect1_dropShadow_873_145" result="shape"/>
</filter>
<filter id="filter9_d_873_145" x="86" y="11" width="28" height="41" filterUnits="userSpaceOnUse" color-interpolation-filters="sRGB">
<feFlood flood-opacity="0" result="BackgroundImageFix"/>
<feColorMatrix in="SourceAlpha" type="matrix" values="0 0 0 0 0 0 0 0 0 0 0 0 0 0 0 0 0 0 127 0" result="hardAlpha"/>
<feOffset dy="4"/>
<feGaussianBlur stdDeviation="2"/>
<feComposite in2="hardAlpha" operator="out"/>
<feColorMatrix type="matrix" values="0 0 0 0 0 0 0 0 0 0 0 0 0 0 0 0 0 0 0.25 0"/>
<feBlend mode="normal" in2="BackgroundImageFix" result="effect1_dropShadow_873_145"/>
<feBlend mode="normal" in="SourceGraphic" in2="effect1_dropShadow_873_145" result="shape"/>
</filter>
<filter id="filter10_d_873_145" x="5" y="4" width="17" height="44" filterUnits="userSpaceOnUse" color-interpolation-filters="sRGB">
<feFlood flood-opacity="0" result="BackgroundImageFix"/>
<feColorMatrix in="SourceAlpha" type="matrix" values="0 0 0 0 0 0 0 0 0 0 0 0 0 0 0 0 0 0 127 0" result="hardAlpha"/>
<feOffset dy="4"/>
<feGaussianBlur stdDeviation="2"/>
<feComposite in2="hardAlpha" operator="out"/>
<feColorMatrix type="matrix" values="0 0 0 0 0 0 0 0 0 0 0 0 0 0 0 0 0 0 0.25 0"/>
<feBlend mode="normal" in2="BackgroundImageFix" result="effect1_dropShadow_873_145"/>
<feBlend mode="normal" in="SourceGraphic" in2="effect1_dropShadow_873_145" result="shape"/>
</filter>
<filter id="filter11_d_873_145" x="27" y="28" width="17" height="21" filterUnits="userSpaceOnUse" color-interpolation-filters="sRGB">
<feFlood flood-opacity="0" result="BackgroundImageFix"/>
<feColorMatrix in="SourceAlpha" type="matrix" values="0 0 0 0 0 0 0 0 0 0 0 0 0 0 0 0 0 0 127 0" result="hardAlpha"/>
<feOffset dy="4"/>
<feGaussianBlur stdDeviation="2"/>
<feComposite in2="hardAlpha" operator="out"/>
<feColorMatrix type="matrix" values="0 0 0 0 0 0 0 0 0 0 0 0 0 0 0 0 0 0 0.25 0"/>
<feBlend mode="normal" in2="BackgroundImageFix" result="effect1_dropShadow_873_145"/>
<feBlend mode="normal" in="SourceGraphic" in2="effect1_dropShadow_873_145" result="shape"/>
</filter>
<filter id="filter12_d_873_145" x="28" y="30" width="15" height="17" filterUnits="userSpaceOnUse" color-interpolation-filters="sRGB">
<feFlood flood-opacity="0" result="BackgroundImageFix"/>
<feColorMatrix in="SourceAlpha" type="matrix" values="0 0 0 0 0 0 0 0 0 0 0 0 0 0 0 0 0 0 127 0" result="hardAlpha"/>
<feOffset dy="4"/>
<feGaussianBlur stdDeviation="2"/>
<feComposite in2="hardAlpha" operator="out"/>
<feColorMatrix type="matrix" values="0 0 0 0 0 0 0 0 0 0 0 0 0 0 0 0 0 0 0.25 0"/>
<feBlend mode="normal" in2="BackgroundImageFix" result="effect1_dropShadow_873_145"/>
<feBlend mode="normal" in="SourceGraphic" in2="effect1_dropShadow_873_145" result="shape"/>
</filter>
<filter id="filter13_d_873_145" x="63.7957" y="11.5376" width="28.2334" height="40.966" filterUnits="userSpaceOnUse" color-interpolation-filters="sRGB">
<feFlood flood-opacity="0" result="BackgroundImageFix"/>
<feColorMatrix in="SourceAlpha" type="matrix" values="0 0 0 0 0 0 0 0 0 0 0 0 0 0 0 0 0 0 127 0" result="hardAlpha"/>
<feOffset dy="4"/>
<feGaussianBlur stdDeviation="2"/>
<feComposite in2="hardAlpha" operator="out"/>
<feColorMatrix type="matrix" values="0 0 0 0 0 0 0 0 0 0 0 0 0 0 0 0 0 0 0.25 0"/>
<feBlend mode="normal" in2="BackgroundImageFix" result="effect1_dropShadow_873_145"/>
<feBlend mode="normal" in="SourceGraphic" in2="effect1_dropShadow_873_145" result="shape"/>
</filter>
</defs>
</svg>
