<svg width="246" height="289" viewBox="0 0 246 289" fill="none" xmlns="http://www.w3.org/2000/svg">
<path d="M203.5 1H42V43H51H203.5V1Z" stroke="#FEE8C0"/>
<path d="M50.5 49V43.5H116.5M116.5 43.5V49M116.5 43.5H195.5V49M195.5 49H236.5V62H228M195.5 49H10V62H17.5M228 79V62M228 79L245 118C243.478 122.261 238.065 128.996 228 124.957M228 79H208M228 62H17.5M17.5 62V79M17.5 79H39M17.5 79L1 118C5.28577 127.107 11.7539 126.558 17.0111 123.5M225 123.5L208 79M225 123.5C226.043 124.091 227.042 124.573 228 124.957M225 123.5C223.828 124.402 222.192 125.401 220.271 126.221M208 79H190M202 123.5L190 79M202 123.5C198.667 128 189.3 133.9 178.5 121.5M202 123.5C206.199 127.699 211.133 128.408 215.5 127.653M190 79H171M178.5 121.5L171 79M178.5 121.5C176.45 123.737 172.565 126.474 168 126.774M171 79H151M156.5 121.5L151 79M156.5 121.5C154.012 124.299 149.204 127.793 144 127.438M156.5 121.5C157.99 123.125 159.5 124.315 161 125.15M151 79H134.5M134.5 121.5V79M134.5 121.5C130.167 125.667 119.5 131.5 111.5 121.5M134.5 121.5C137.525 125.584 140.836 127.222 144 127.438M134.5 79H111.5M111.5 121.5V79M111.5 121.5C108.667 125.5 100.4 131.1 90 121.5M111.5 79H96M90 121.5L96 79M90 121.5C86.1667 125.5 76.5 130.8 68.5 120M96 79H76.5M68.5 120L76.5 79M68.5 120C63.1667 125.167 51.2 132 46 118M76.5 79H57M46 118L57 79M46 118C43.792 121.189 40.0672 125.005 35.9952 126.221M57 79H39M23.5 118L39 79M23.5 118C21.9033 119.872 19.6046 121.991 17.0111 123.5M23.5 118C25.7493 122.873 28.3499 125.336 31 126.221M17.0111 123.5V203.5M17.0111 203.5H10V220.5H17.5M17.0111 203.5H31M31 203.5V216H151V203.5H161V220.5H17.5M31 203.5V126.221M31 126.221C32.6706 126.779 34.3609 126.709 35.9952 126.221M35.9952 126.221V142M144 127.438V142M17.5 220.5V267.5H228V220.5H221.5H236.5V203.5H229M221.5 203.5H229M229 203.5L228 124.957M215.5 127.653V254H168V126.774M215.5 127.653C217.202 127.358 218.818 126.841 220.271 126.221M168 126.774C165.783 126.919 163.406 126.49 161 125.15M161 125.15V259.5H221.5L220.271 126.221M35.9952 142H144M35.9952 142V150.5M35.9952 142V169M144 142V150.5M144 150.5H35.9952M144 150.5V169V176M35.9952 150.5V169M35.9952 169V176M35.9952 169V197.5M144 176H35.9952M144 176V193.25V204M35.9952 176V197.5M35.9952 197.5V204M144 204V210.5H35.9952V204M144 204H35.9952" stroke="#FEE8C0"/>
<path d="M151 203.5V126" stroke="#FEE8C0"/>
<path d="M55.4615 11.7288C53.8323 15.9459 53.0236 20.4112 51.8469 24.7732C51.3151 26.7445 51.0185 28.7336 50.5277 30.6921C50.3496 31.4027 50.4768 32.2149 50 32.832" stroke="#FEE8C0" stroke-linecap="round"/>
<path d="M56.4113 12.7533C57.8846 11.3973 61.2361 8.32473 63.9703 9.1336C68.1263 10.3631 66.1404 15.1407 64.4321 17.3518C63.8183 18.1462 63.3611 19.0201 62.8226 19.8332C62.0766 20.9597 64.3945 21.3572 65.3027 21.6544C70.8765 23.4786 70.5611 28.5514 67.2288 32.1833C64.272 35.4058 58.2548 35.3811 54.0367 34.4712" stroke="#FEE8C0" stroke-linecap="round"/>
<path d="M132.137 11.7288C130.508 15.9459 129.699 20.4112 128.522 24.7732C127.99 26.7445 127.694 28.7336 127.203 30.6921C127.025 31.4027 127.152 32.2149 126.675 32.832" stroke="#FEE8C0" stroke-linecap="round"/>
<path d="M133.087 12.7533C134.56 11.3973 137.911 8.32473 140.646 9.1336C144.802 10.3631 142.816 15.1407 141.107 17.3518C140.494 18.1462 140.036 19.0201 139.498 19.8332C138.752 20.9597 141.07 21.3572 141.978 21.6544C147.552 23.4786 147.236 28.5514 143.904 32.1833C140.947 35.4058 134.93 35.3811 130.712 34.4712" stroke="#FEE8C0" stroke-linecap="round"/>
<path d="M73.7735 25.8002C75.005 24.446 77.7653 23.4076 79.6014 24.3834C81.7307 25.5151 81.9985 27.7367 81.9985 29.7698C81.9985 30.5147 82.0159 31.2534 81.9311 31.9952C81.8181 32.983 81.7667 32.7065 81.3243 32.0018C80.3481 30.4466 78.8936 28.9277 76.7399 28.9277C74.6623 28.9277 71.9247 31.2502 73.4364 33.1981C74.9773 35.1836 77.7298 35.4052 80.1108 34.4611" stroke="#FEE8C0" stroke-linecap="round"/>
<path d="M149.859 25.8002C151.228 24.446 154.295 23.4076 156.335 24.3834C158.701 25.5151 158.998 27.7367 158.998 29.7698C158.998 30.5147 159.018 31.2534 158.923 31.9952C158.798 32.983 158.741 32.7065 158.249 32.0018C157.165 30.4466 155.548 28.9277 153.155 28.9277C150.847 28.9277 147.805 31.2502 149.485 33.1981C151.197 35.1836 154.255 35.4052 156.901 34.4611" stroke="#FEE8C0" stroke-linecap="round"/>
<path d="M85.9325 18.6816C85.9325 20.9668 85.8345 23.2527 85.8182 25.5362C85.8077 27.0032 85.8025 28.4939 85.6912 29.9579C85.6106 31.019 85.7418 32.0947 85.634 33.1523C85.5771 33.711 85.5324 34.2961 85.5324 34.8563" stroke="#FEE8C0" stroke-linecap="round"/>
<path d="M92.2193 21.0979C91.9667 21.2535 91.8059 21.5117 91.6096 21.7143C91.2982 22.0359 90.9341 22.3111 90.5745 22.591C89.5042 23.424 88.5132 24.3261 87.4756 25.1881C87.0732 25.5225 86.3166 25.9439 86.0754 26.4018C85.893 26.7481 87.4958 27.7751 87.6915 27.9305C88.9931 28.9638 90.3254 29.9441 91.6858 30.9167C92.6786 31.6264 93.6587 32.3493 94.6514 33.0591C95.0069 33.3132 95.3698 33.6172 95.7627 33.8207" stroke="#FEE8C0" stroke-linecap="round"/>
<path d="M162.608 18.6816C162.608 20.9668 162.51 23.2527 162.493 25.5362C162.483 27.0032 162.478 28.4939 162.366 29.9579C162.286 31.019 162.417 32.0947 162.309 33.1523C162.252 33.711 162.208 34.2961 162.208 34.8563" stroke="#FEE8C0" stroke-linecap="round"/>
<path d="M168.895 21.0979C168.642 21.2535 168.481 21.5117 168.285 21.7143C167.973 22.0359 167.609 22.3111 167.25 22.591C166.179 23.424 165.188 24.3261 164.151 25.1881C163.748 25.5225 162.992 25.9439 162.751 26.4018C162.568 26.7481 164.171 27.7751 164.367 27.9305C165.668 28.9638 167.001 29.9441 168.361 30.9167C169.354 31.6264 170.334 32.3493 171.327 33.0591C171.682 33.3132 172.045 33.6172 172.438 33.8207" stroke="#FEE8C0" stroke-linecap="round"/>
<path d="M101.812 28.9705C103.747 29.0158 105.681 28.8541 107.587 28.6312C107.836 28.6022 107.737 28.0714 107.715 27.9373C107.591 27.2061 107.072 26.5471 106.583 25.9458C105.487 24.5961 103.489 23.763 101.508 24.06C99.725 24.3272 98.5175 25.4508 98.1947 26.8665C97.7995 28.5999 97.9768 30.4385 98.9948 32.014C99.4187 32.67 100.091 33.1642 100.88 33.5178C101.726 33.8964 102.6 33.976 103.554 33.997C105.099 34.0309 106.966 33.7913 108 32.7762" stroke="#FEE8C0" stroke-linecap="round"/>
<path d="M178.812 28.9705C180.747 29.0158 182.681 28.8541 184.587 28.6312C184.836 28.6022 184.737 28.0714 184.715 27.9373C184.591 27.2061 184.072 26.5471 183.583 25.9458C182.487 24.5961 180.489 23.763 178.508 24.06C176.725 24.3272 175.517 25.4508 175.195 26.8665C174.8 28.5999 174.977 30.4385 175.995 32.014C176.419 32.67 177.091 33.1642 177.88 33.5178C178.726 33.8964 179.6 33.976 180.554 33.997C182.099 34.0309 183.966 33.7913 185 32.7762" stroke="#FEE8C0" stroke-linecap="round"/>
<path d="M111.737 23.5225C111.737 25.5805 111.641 27.6322 111.843 29.6878C111.95 30.7757 112.256 31.8392 112.362 32.9231C112.4 33.3091 112.533 33.6608 112.533 34.0524" stroke="#FEE8C0" stroke-linecap="round"/>
<path d="M112.291 26.7997C112.356 24.3792 111.693 28.1231 112.02 27.3426C112.41 26.4125 113.081 25.6529 114.007 25.0789C115.49 24.1592 117.636 23.951 119.325 24.5753" stroke="#FEE8C0" stroke-linecap="round"/>
<path d="M188.412 23.5225C188.412 25.5805 188.316 27.6322 188.519 29.6878C188.626 30.7757 188.931 31.8392 189.037 32.9231C189.075 33.3091 189.208 33.6608 189.208 34.0524" stroke="#FEE8C0" stroke-linecap="round"/>
<path d="M188.966 26.7997C189.031 24.3792 188.368 28.1231 188.695 27.3426C189.086 26.4125 189.756 25.6529 190.682 25.0789C192.166 24.1592 194.312 23.951 196 24.5753" stroke="#FEE8C0" stroke-linecap="round"/>
</svg>
