<svg width="74" height="70" viewBox="0 0 74 70" fill="none" xmlns="http://www.w3.org/2000/svg">
<path d="M18.1856 3.46184C2.98555 15.8618 11.8522 29.6285 18.1856 34.9618C9.38556 34.9618 6.18557 35.4618 3.18557 37.4618C-1.31446 40.9618 1.35218 46.4618 9.18552 45.9618C26.1855 44.8767 43.8522 60.1285 48.6855 68.4618C58.2855 69.6618 69.0189 53.2952 73.1855 45.9618C62.3855 40.7618 52.3522 24.7952 48.6855 17.4618C39.4855 -2.53816 24.5189 -0.204824 18.1856 3.46184Z" fill="#B2C244"/>
<path d="M73.1855 45.9618C62.3855 40.7618 52.3522 24.7952 48.6855 17.4618C39.4855 -2.53816 24.5189 -0.204824 18.1856 3.46184C2.98555 15.8618 11.8522 29.6285 18.1856 34.9618C9.38556 34.9618 6.18557 35.4618 3.18557 37.4618C-1.31446 40.9618 1.35218 46.4618 9.18552 45.9618C26.1855 44.8767 43.8522 60.1285 48.6855 68.4618C58.2855 69.6618 69.0189 53.2952 73.1855 45.9618ZM73.1855 45.9618C83.9855 51.1618 74.1855 38.4618 73.1855 45.9618Z" stroke="#B6C746"/>
</svg>
