<svg width="55" height="60" viewBox="0 0 55 60" fill="none" xmlns="http://www.w3.org/2000/svg">
<path d="M48.4218 42.9647C51.3907 45.1875 53.7202 46.9386 54.5113 49.1421C56.0593 53.5068 51.3614 57.6717 49.0354 58.776L48.9134 58.8301C46.3097 59.9857 39.2367 60.8294 34.6876 57.5376C31.6834 55.3736 30.1945 51.4792 28.4621 46.9732L28.164 46.2204C27.0439 43.3137 25.7695 40.6266 24.6472 38.2462C22.2886 33.2554 20.601 29.6723 21.9453 27.7731L19.8118 28.7201C18.6797 29.2225 17.2319 28.9944 16.6008 28.2094L2.71188 10.9356C2.08076 10.1507 2.49656 9.09541 3.62863 8.59296L4.94358 8.00934C3.33282 8.00463 1.8158 7.42579 0.979986 6.38629C-0.346221 4.73687 0.512397 2.54233 2.89846 1.48331C5.28452 0.424297 8.29236 0.902766 9.61857 2.55218C10.4544 3.59168 10.4126 4.86236 9.65474 5.91836L10.9784 5.33088C12.1105 4.82842 13.5495 5.06047 14.1806 5.8454L28.0738 23.1245C28.705 23.9094 28.3066 24.957 27.1658 25.4633L24.9452 26.4489C29.1199 26.4094 34.9114 31.4814 42.5447 38.1682L43.8427 39.2976C45.4235 40.6758 47.0278 41.8923 48.4392 42.957L48.4218 42.9647ZM53.5083 49.3642C52.7929 47.343 50.5319 45.6478 47.6619 43.4891C46.2289 42.4123 44.6246 41.1958 43.0053 39.7844L41.716 38.6512C36.987 34.5037 32.6391 30.6981 29.1653 28.6849C32.2819 30.871 36.1807 34.5737 40.7769 38.9528L42.0053 40.1131C43.5075 41.5405 44.9986 42.8073 46.3055 43.9184C49.0395 46.2311 51.1993 48.0503 52.1519 50.1461C52.9103 51.8389 52.8475 53.4067 52.3892 54.7471C53.4955 53.1839 54.1902 51.2852 53.4953 49.3628L53.5083 49.3642ZM51.1871 50.4304C50.2849 48.4561 48.1809 46.6769 45.5198 44.4254C44.1957 43.3076 42.6915 42.0394 41.1766 40.5961L39.9656 39.428C34.5049 34.2237 29.2838 29.2584 26.033 27.7723C28.3282 29.4954 32.0038 33.3908 38.2119 40.1272L39.3271 41.3378C40.7071 42.8338 42.0286 44.1687 43.1873 45.3599C45.5819 47.7945 47.472 49.719 48.6862 51.6699C49.9596 53.7386 50.2968 55.5247 50.129 56.8297C51.3682 55.373 52.3715 53.0351 51.1913 50.4357L51.1871 50.4304ZM47.7295 51.9938C46.5622 50.1011 44.6978 48.2085 42.3244 45.8004C41.157 44.6131 39.8358 43.2637 38.4599 41.773L37.3405 40.5572C32.3545 35.1349 26.7658 29.0806 24.4707 27.6957L48.7561 57.8997C49.2154 57.1777 49.6738 55.132 47.7295 51.9938ZM7.21083 3.61362C6.61382 2.87112 5.26539 2.66362 4.20298 3.13516C3.14058 3.60669 2.74736 4.58719 3.34437 5.3297C3.94137 6.0722 5.28109 6.28356 6.35221 5.80816C7.42332 5.33277 7.79931 4.34552 7.21083 3.61362ZM47.7826 58.1878L24.0771 28.7052C24.9177 30.4118 26.967 33.4602 28.9738 36.4411C30.4531 38.663 32.1498 41.1699 33.827 43.8437L34.2644 44.5347C36.838 48.6025 39.0376 52.1023 41.3774 54.4245C44.0974 57.1608 46.5807 58.0304 47.7826 58.1878ZM28.0427 36.7968C25.3728 32.8149 23.7237 30.3229 23.0845 28.7931C23.2138 30.5852 24.9709 33.7992 26.9357 37.3745C28.1973 39.693 29.6414 42.312 30.9877 45.1326L31.3379 45.8768C33.3764 50.1461 35.1535 53.8406 37.7682 55.9904C40.5631 58.2761 44.0211 58.7707 46.3223 58.6201C44.6574 58.0924 42.5501 56.9264 40.5143 54.8795C38.1362 52.5096 35.8982 48.9621 33.3076 44.873L32.8789 44.1782C31.1927 41.5227 29.5135 39.0081 28.0298 36.7953L28.0427 36.7968ZM25.975 37.6785C24.7597 35.4617 23.7223 33.569 23.0101 31.9925C23.5697 33.6583 24.5362 35.6833 25.6163 37.9672C26.7471 40.3582 28.0215 43.0453 29.1412 45.981L29.4306 46.7377C31.1339 51.1486 32.5977 54.9678 35.4348 56.9973C37.5333 58.5198 40.2417 59.052 42.6747 59.0948C40.7655 58.7188 38.7532 57.9208 36.9957 56.4844C34.2523 54.2334 32.4455 50.4873 30.3862 46.148L30.0186 45.4116C28.6809 42.6016 27.241 39.9879 25.9794 37.6694L25.975 37.6785Z" fill="#DE2929"/>
</svg>
